<svg width="1000" height="1000" viewBox="0 0 1000 1000" fill="none" xmlns="http://www.w3.org/2000/svg">
<g clip-path="url(#clip0_6_133)">
<mask id="path-1-inside-1_6_133" fill="white">
<path fill-rule="evenodd" clip-rule="evenodd" d="M766.776 1008H175C210.764 850.655 302.672 739.594 460.831 739.594C621.181 739.594 756.179 853.706 766.776 1008Z"/>
</mask>
<path fill-rule="evenodd" clip-rule="evenodd" d="M766.776 1008H175C210.764 850.655 302.672 739.594 460.831 739.594C621.181 739.594 756.179 853.706 766.776 1008Z" fill="white"/>
<path d="M175 1008L167.199 1006.23C166.66 1008.6 167.23 1011.09 168.748 1012.99C170.266 1014.89 172.567 1016 175 1016V1008ZM766.776 1008V1016C768.992 1016 771.11 1015.08 772.623 1013.46C774.136 1011.84 774.909 1009.66 774.757 1007.45L766.776 1008ZM175 1016H766.776V1000H175V1016ZM182.801 1009.77C200.465 932.06 231.844 866.49 277.687 820.437C323.363 774.552 383.821 747.594 460.831 747.594V731.594C379.682 731.594 315.107 760.167 266.348 809.149C217.756 857.962 185.299 926.595 167.199 1006.23L182.801 1009.77ZM460.831 747.594C617.519 747.594 748.522 858.971 758.794 1008.55L774.757 1007.45C763.836 848.44 624.843 731.594 460.831 731.594V747.594Z" fill="black" mask="url(#path-1-inside-1_6_133)"/>
<path d="M776.004 594.526C776.004 670.661 744.618 729.988 692.763 770.38C640.802 810.854 568.023 832.502 485.138 832.502C402.245 832.502 325.589 810.849 269.77 770.299C214.055 729.826 179 670.489 179 594.526C179 442.295 312.349 318.374 477.502 318.374C642.655 318.374 776.004 442.295 776.004 594.526Z" fill="white" stroke="black" stroke-width="8"/>
<g filter="url(#filter0_f_6_133)">
<ellipse cx="76.947" cy="14.683" rx="76.947" ry="14.683" transform="matrix(0.996946 -0.0781004 0.0781166 0.996944 237.263 635.575)" fill="#CD3131"/>
</g>
<g filter="url(#filter1_f_6_133)">
<ellipse cx="76.947" cy="14.683" rx="76.947" ry="14.683" transform="matrix(0.996946 -0.0781004 0.0781166 0.996944 600.327 607.132)" fill="#CD3131"/>
</g>
<path d="M468.879 539.093C474.175 593.028 434.742 641.043 380.802 646.339C326.862 651.634 278.842 612.203 273.545 558.268C268.249 504.333 307.681 456.317 361.622 451.022C415.562 445.727 463.582 485.158 468.879 539.093Z" fill="white" stroke="black" stroke-width="8"/>
<ellipse cx="78.664" cy="79.2918" rx="78.664" ry="79.2918" transform="matrix(0.995216 -0.0976967 0.0977331 0.995213 287.777 467.704)" fill="black"/>
<path d="M713.539 515.073C718.836 569.008 679.403 617.024 625.463 622.319C571.523 627.614 523.502 588.183 518.206 534.249C512.909 480.314 552.342 432.298 606.282 427.003C660.222 421.708 708.243 461.139 713.539 515.073Z" fill="white" stroke="black" stroke-width="8"/>
<ellipse cx="78.664" cy="79.2918" rx="78.664" ry="79.2918" transform="matrix(0.995216 -0.0976967 0.0977331 0.995213 532.438 443.684)" fill="black"/>
<path d="M447.197 319.555C441.084 272.366 371.584 275.801 348.865 234.498C318.205 178.758 358.945 112.053 423.982 103.692C489.018 95.331 549.75 148.749 527.111 201.237C504.473 253.725 438.934 242.645 406.429 215.704C373.923 188.763 359.837 80.8779 413.762 44.206C456.944 14.8399 478.798 34.946 478.798 34.946" stroke="black" stroke-width="8"/>
<rect x="306.574" y="784.231" width="223.205" height="81.0504" fill="white"/>
<mask id="path-12-outside-2_6_133" maskUnits="userSpaceOnUse" x="512.934" y="39.4705" width="336.022" height="266.662" fill="black">
<rect fill="white" x="512.934" y="39.4705" width="336.022" height="266.662"/>
<path d="M517.501 96.9447L552.53 46.5617L843.982 249.15L808.953 299.533L517.501 96.9447Z"/>
</mask>
<path d="M517.501 96.9447L552.53 46.5617L843.982 249.15L808.953 299.533L517.501 96.9447Z" fill="#FFC804"/>
<path d="M547.963 53.1302L839.415 255.719L848.548 242.582L557.097 39.9933L547.963 53.1302ZM813.519 292.965L522.068 90.3762L512.934 103.513L804.386 306.102L813.519 292.965Z" fill="black" mask="url(#path-12-outside-2_6_133)"/>
<mask id="path-14-outside-3_6_133" maskUnits="userSpaceOnUse" x="450.545" y="-3.89723" width="106.931" height="107.42" fill="black">
<rect fill="white" x="450.545" y="-3.89723" width="106.931" height="107.42"/>
<path d="M475.64 67.8458C467.93 62.4871 466.025 51.8937 471.385 44.1849L487.005 21.7187C492.364 14.0099 502.959 12.1048 510.668 17.4636L552.529 46.561L517.5 96.9433L475.64 67.8458Z"/>
</mask>
<path d="M475.64 67.8458C467.93 62.4871 466.025 51.8937 471.385 44.1849L487.005 21.7187C492.364 14.0099 502.959 12.1048 510.668 17.4636L552.529 46.561L517.5 96.9433L475.64 67.8458Z" fill="url(#paint0_linear_6_133)"/>
<path d="M471.073 74.4143C459.736 66.5338 456.934 50.9553 464.816 39.6189L480.436 17.1526C488.317 5.81613 503.897 3.01455 515.235 10.8951L506.101 24.032C502.02 21.195 496.411 22.2036 493.574 26.2847L477.954 48.751C475.116 52.8321 476.125 58.4404 480.206 61.2774L471.073 74.4143ZM552.529 46.561L517.5 96.9433L552.529 46.561ZM512.934 103.512L471.073 74.4143C459.736 66.5338 456.934 50.9553 464.816 39.6189L477.954 48.751C475.116 52.8321 476.125 58.4404 480.206 61.2774L522.067 90.3748L512.934 103.512ZM480.436 17.1526C488.317 5.81613 503.897 3.01455 515.235 10.8951L557.096 39.9925L547.962 53.1295L506.101 24.032C502.02 21.195 496.411 22.2036 493.574 26.2847L480.436 17.1526Z" fill="black" mask="url(#path-14-outside-3_6_133)"/>
<path d="M517.501 96.9437L552.529 46.5618L571.794 59.953L536.766 110.335L517.501 96.9437Z" fill="url(#paint1_linear_6_133)"/>
<path d="M849.421 248.333L909.214 332.036L810.019 304.96L849.421 248.333Z" fill="#F7DEC7" stroke="black" stroke-width="8"/>
<path d="M565.256 95.7043C564.165 94.9457 563.896 93.4462 564.654 92.355V92.355C565.413 91.2638 566.913 90.9941 568.004 91.7527L814.504 263.096C815.595 263.854 815.864 265.354 815.106 266.445V266.445C814.347 267.536 812.847 267.806 811.756 267.047L565.256 95.7043Z" fill="#C89C00"/>
<rect width="7.21918" height="17.8988" transform="matrix(0.570845 -0.821058 0.821118 0.570758 892.206 324.434)" fill="black"/>
</g>
<defs>
<filter id="filter0_f_6_133" x="172.901" y="562.875" width="284.442" height="162.656" filterUnits="userSpaceOnUse" color-interpolation-filters="sRGB">
<feFlood flood-opacity="0" result="BackgroundImageFix"/>
<feBlend mode="normal" in="SourceGraphic" in2="BackgroundImageFix" result="shape"/>
<feGaussianBlur stdDeviation="32.75" result="effect1_foregroundBlur_6_133"/>
</filter>
<filter id="filter1_f_6_133" x="535.965" y="534.433" width="284.442" height="162.656" filterUnits="userSpaceOnUse" color-interpolation-filters="sRGB">
<feFlood flood-opacity="0" result="BackgroundImageFix"/>
<feBlend mode="normal" in="SourceGraphic" in2="BackgroundImageFix" result="shape"/>
<feGaussianBlur stdDeviation="32.75" result="effect1_foregroundBlur_6_133"/>
</filter>
<linearGradient id="paint0_linear_6_133" x1="479.195" y1="32.9518" x2="535.011" y2="71.7579" gradientUnits="userSpaceOnUse">
<stop stop-color="#F6BADA"/>
<stop offset="1" stop-color="#ED89BF"/>
</linearGradient>
<linearGradient id="paint1_linear_6_133" x1="535.015" y1="71.7528" x2="554.279" y2="85.1459" gradientUnits="userSpaceOnUse">
<stop stop-color="#B1B1B1"/>
<stop offset="1" stop-color="#CECECE"/>
</linearGradient>
<clipPath id="clip0_6_133">
<rect width="1000" height="1000" fill="white"/>
</clipPath>
</defs>
</svg>
